# xmcd CD database file
#
# Track frame offsets:
#	150
#	18943
#	35119
#	56955
#	77735
#	106741
#	124078
#	148276
#	167528
#	184703
#	204646
#	229109
#	245776
#	264879
#
# Disc length: 3697 seconds
#
# Revision: 0
# Processed by: cddbd v1.4PL0 Copyright (c) Steve Scherf et al.
# Submitted via: CDex 1.50beta10
#
DISCID=c40e6f0e
DTITLE=Xavier Naidoo - Nicht von dieser Welt
DYEAR=2001
DGENRE=Rhythmic Soul
TTITLE0=Xavier Naidoo - Seit Ihr Mit Mir - 
TTITLE1=Xavier Naidoo - 20.000 meilen
TTITLE2=Xavier Naidoo - Ernten Was Man Sät
TTITLE3=Xavier Naidoo - Führ mich ans Licht
TTITLE4=Xavier Naidoo - Könnt ihr mich hören?
TTITLE5=Xavier Naidoo - Nicht Von Dieser Welt
TTITLE6=Xavier Naidoo - Freisein(nachtschicht am meer)
TTITLE7=Xavier Naidoo - Gute Aussichten
TTITLE8=Xavier Naidoo - Flugzeuge im Bauch
TTITLE9=Xavier Naidoo - Ich kann Dich sehen
TTITLE10=Xavier Naidoo - Mich belogen
TTITLE11=xavier naidoo - this is not america
TTITLE12=Xavier Naidoo - Eigentlich gut
TTITLE13=Xavier Naidoo - Sag es laut
EXTD=YEAR: 2001
EXTT0=
EXTT1=
EXTT2=
EXTT3=
EXTT4=
EXTT5=
EXTT6=
EXTT7=
EXTT8=
EXTT9=
EXTT10=
EXTT11=
EXTT12=
EXTT13=
PLAYORDER=
